<?xml version="1.0" encoding="UTF-8" standalone="no"?>
<!-- Created with Inkscape (http://www.inkscape.org/) -->
<svg
   xmlns:svg="http://www.w3.org/2000/svg"
   xmlns="http://www.w3.org/2000/svg"
   xmlns:xlink="http://www.w3.org/1999/xlink"
   version="1.0"
   width="251"
   height="304.20001"
   id="svg4166">
  <defs
     id="defs4168" />
  <path
     d="M 1.4495603,1.4395041 L 125.50006,1.4395041 L 249.55061,1.4395041 L 249.55061,174.9361 C 250.31785,268.65698 169.26117,302.75585 125.50008,302.75585 C 82.506226,302.75585 0.68233088,268.65698 1.4495603,174.9361 L 1.4495603,1.4395041 z "
     style="color:#000000;fill:#eeeeee;fill-opacity:1;fill-rule:nonzero;stroke:none;stroke-width:1.88832211;stroke-linecap:round;stroke-linejoin:bevel;marker:none;marker-start:none;marker-mid:none;marker-end:none;stroke-miterlimit:4;stroke-dashoffset:0;stroke-opacity:1;visibility:visible;display:block"
     id="Shield" />
  <path
     d="M 1.4375,1.4375 L 1.4375,125.5625 L 125.5,1.46875 L 249.5625,125.5625 L 249.5625,1.4375 L 125.5,1.4375 L 1.4375,1.4375 z "
     style="fill:#003d8f;fill-opacity:1;fill-rule:evenodd;stroke:none;stroke-width:1.88800001;stroke-linecap:butt;stroke-miterlimit:4;stroke-dasharray:none;stroke-opacity:1"
     id="Mantelsnitt" />
  <path
     d="M 1.4495187,1.4395021 L 125.50002,1.4395021 L 249.55056,1.4395021 L 249.55056,174.9361 C 250.3178,268.65698 169.26112,302.75585 125.50004,302.75585 C 82.50619,302.75585 0.68228966,268.65698 1.4495187,174.9361 L 1.4495187,1.4395021 z "
     style="fill-opacity:0;stroke:#000000;stroke-width:1.88832211;stroke-linecap:round"
     id="Frame" />
  <g
     transform="matrix(0.3875227,0,0,0.3875227,21.209914,-58.027304)"
     id="g2213">
    <path
       d="M 265.93656,701.36879 C 266.28252,707.70245 253.7254,728.65312 271.71752,729.09668 C 281.55695,729.33925 304.96538,715.02431 311.00862,689.25801 C 337.88547,677.55078 370.02775,690.32418 395.09945,702.4525 C 420.91864,722.13265 450.88763,732.88013 479.36094,747.19128 C 491.52309,751.82553 490.14268,740.22233 485.20081,733.35866 C 452.28059,710.18564 411.69147,698.6936 388.37077,664.119 C 385.50827,659.87523 386.54437,655.6199 388.45428,651.53081 C 440.68149,616.06342 499.75501,631.45421 559.03771,645.29995 C 566.26162,642.73565 571.93003,632.81621 563.04296,628.74741 C 530.06242,621.28193 495.79157,619.51682 465.54087,603.49267 C 430.39599,549.58793 476.0526,522.22038 517.78528,504.93459 C 528.50309,500.78668 539.94668,503.39177 550.70024,505.81818 C 557.72151,505.17344 566.64757,500.11889 567.46258,492.53311 C 566.25331,484.19617 554.18619,485.3205 547.55719,485.5128 C 517.63583,483.40664 490.41776,501.78663 461.35972,503.41991 C 437.74093,499.53188 441.90246,473.83033 445.18409,456.9479 C 447.48287,446.26845 467.5026,431.38414 446.72182,432.82571 C 436.40681,437.29297 424.54805,449.19045 422.59962,431.28795 C 423.84088,412.88478 440.13946,390.51771 434.98659,374.93048 C 414.70962,364.47392 410.70791,441.54683 382.31558,394.62781 C 379.67508,384.97963 382.73675,374.4317 378.71608,365.25007 C 365.43441,353.82649 363.94416,385.34767 359.29776,392.19888 C 354.30304,396.71667 353.33538,390.18269 351.68547,386.78028 C 349.56404,380.57426 339.10813,372.89385 335.92601,376.23643 C 333.6226,381.16798 341.96702,396.70789 335.04933,395.36323 C 314.01071,410.05053 333.99403,431.86823 336.40213,449.19506 C 349.40925,490.15781 363.97347,532.35016 368.77653,574.44248 C 372.8843,610.44131 357.73036,640.4098 321.73915,654.31825 C 305.74494,660.93931 290.08881,654.62018 280.58079,671.52678 C 274.1968,681.86566 265.4133,691.78936 265.93656,701.36879 z "
       style="fill:#d40000;fill-opacity:1;fill-rule:evenodd;stroke:none;stroke-width:3.33085799px;stroke-linecap:butt;stroke-linejoin:miter;stroke-opacity:1"
       id="path2205" />
    <use
       transform="matrix(-1,0,0,1,538.23927,0)"
       id="use2162"
       x="0"
       y="0"
       width="251"
       height="304.20001"
       xlink:href="#path2205" />
  </g>
</svg>
